<svg xmlns="http://www.w3.org/2000/svg" viewBox="0 0 900 900" width="900" height="900" role="img" xmlns:c2pa="http://c2pa.org/manifest"><metadata><c2pa:manifest>AAAWgmp1bWIAAAAeanVtZGMycGEAEQAQgAAAqgA4m3EDYzJwYQAAABZcanVtYgAAAEdqdW1kYzJtYQARABCAAACqADibcQN1cm46YzJwYTpjNTcyYTk5MC05NzhiLTQwMjMtOTljMy1hNzY1ZDM0MzQ1OWQAAAADl2p1bWIAAAApanVtZGMyYXMAEQAQgAAAqgA4m3EDYzJwYS5hc3NlcnRpb25zAAAAALxqdW1iAAAARGp1bWRjYm9yABEAEIAAAKoAOJtxE2MycGEuaW5ncmVkaWVudC52MwAAAAAYYzJzaNlivMecrTZc9rFhhURrYBwAAABwY2JvcqNpZGM6Zm9ybWF0bWltYWdlL3N2Zyt4bWxqaW5zdGFuY2VJRHgseG1wOmlpZDo1YWUwNmIzMi0xZDE5LTRmNjUtOWMxYy05Y2E4ZWRiODU0MjhscmVsYXRpb25zaGlwaHBhcmVudE9mAAAB4mp1bWIAAABBanVtZGNib3IAEQAQgAAAqgA4m3ETYzJwYS5hY3Rpb25zLnYyAAAAABhjMnNo8YFVNyBQsX8+c6IrDd4jmgAAAZljYm9yomdhY3Rpb25zgqJmYWN0aW9ua2MycGEub3BlbmVkanBhcmFtZXRlcnOha2luZ3JlZGllbnRzgaJjdXJseC1zZWxmI2p1bWJmPWMycGEuYXNzZXJ0aW9ucy9jMnBhLmluZ3JlZGllbnQudjNkaGFzaFggy16hhJ07g2nhkhvuH2bbnviVuYQjHfzj3voiH+IDrHOkZmFjdGlvbngdY29tLmFudGhyb3BpYy5jbGF1ZGUucHJvdmlkZWRqcGFyYW1ldGVyc6F4H2NvbS5hbnRocm9waWMub3JpZ2luLWNvbmZpZGVuY2VndW5rbm93bmtkZXNjcmlwdGlvbnhmQ2xhdWRlIHByb3ZpZGVkIHRoaXMgZmlsZSBhdCB0aGUgcmVxdWVzdCBvZiBhIHVzZXIgYW5kIG1heSBoYXZlIGNyZWF0ZWQgb3IgbW9kaWZpZWQgdGhlIGZpbGUgY29udGVudHMubXNvZnR3YXJlQWdlbnShZG5hbWVmQ2xhdWRlcmFsbEFjdGlvbnNJbmNsdWRlZPUAAADIanVtYgAAAEBqdW1kY2JvcgARABCAAACqADibcRNjMnBhLmhhc2guZGF0YQAAAAAYYzJzaIjxgbe4FxsX48oMi892GT0AAACAY2JvcqVjYWxnZnNoYTI1NmNwYWRNAAAAAAAAAAAAAAAAAGRoYXNoWCAdyxWeX9f704ya4HcptdkpPByJhpBt8B6l4MAowIMCoGRuYW1lbmp1bWJmIG1hbmlmZXN0amV4Y2x1c2lvbnOBomVzdGFydBihZmxlbmd0aBkeBAAAAj5qdW1iAAAAJ2p1bWRjMmNsABEAEIAAAKoAOJtxA2MycGEuY2xhaW0udjIAAAACD2Nib3KlY2FsZ2ZzaGEyNTZpc2lnbmF0dXJleE1zZWxmI2p1bWJmPS9jMnBhL3VybjpjMnBhOmM1NzJhOTkwLTk3OGItNDAyMy05OWMzLWE3NjVkMzQzNDU5ZC9jMnBhLnNpZ25hdHVyZWppbnN0YW5jZUlEeCx4bXA6aWlkOjZlYzE5NDY2LTk0YzctNDljZS04YTM3LTMyNGRlMDU0MzMyZHJjcmVhdGVkX2Fzc2VydGlvbnODomN1cmx4LXNlbGYjanVtYmY9YzJwYS5hc3NlcnRpb25zL2MycGEuaW5ncmVkaWVudC52M2RoYXNoWCDLXqGEnTuDaeGSG+4fZtue+JW5hCMd/OPe+iIf4gOsc6JjdXJseCpzZWxmI2p1bWJmPWMycGEuYXNzZXJ0aW9ucy9jMnBhLmFjdGlvbnMudjJkaGFzaFggWrMYy1L9GFgwpdJjCDlVN+het1bOkYH7lz+DLCKd/baiY3VybHgpc2VsZiNqdW1iZj1jMnBhLmFzc2VydGlvbnMvYzJwYS5oYXNoLmRhdGFkaGFzaFggAO2n7eiuFEgXNVmnjrmYz741rOjTPMNrPHbP1iRov790Y2xhaW1fZ2VuZXJhdG9yX2luZm+jZG5hbWVvQW50aHJvcGljIEZpbGVzZ3ZlcnNpb25lMS4wLjBrc3BlY1ZlcnNpb25lMi40LjAAABA4anVtYgAAAChqdW1kYzJjcwARABCAAACqADibcQNjMnBhLnNpZ25hdHVyZQAAABAIY2JvctKEWQISogEmGCFZAgowggIGMIIBjaADAgECAhRA5aAK7sI50L64g/oGQgU9Z1UTADAKBggqhkjOPQQDAzBJMRcwFQYDVQQKEw5BbnRocm9waWMsIFBCQzEuMCwGA1UEAxMlQW50aHJvcGljIENvbnRlbnQgQ3JlZGVudGlhbHMgUm9vdCBDQTAeFw0yNjA4MDcxODQzNTZaFw0yODA4MDYxOTQzNTZaMEQxFzAVBgNVBAoTDkFudGhyb3BpYywgUEJDMSkwJwYDVQQDEyBBbnRocm9waWMgQ2xhdWRlIENvbnRlbnQgU2lnbmluZzBZMBMGByqGSM49AgEGCCqGSM49AwEHA0IABJh6CmvLUBgFFNU0vUKlOVtE6djd17L5SuwX0LemFisBM3dkd/3cyjxFA3Qo5S46fX0/ihY0VZ7mfb9KF703t5OjWDBWMA4GA1UdDwEB/wQEAwIHgDAVBgNVHSUEDjAMBgorBgEEAYPoXgIBMAwGA1UdEwEB/wQCMAAwHwYDVR0jBBgwFoAUzlHiBIFOZFsj+OPEz5o+nMHXXMIwCgYIKoZIzj0EAwMDZwAwZAIwMXMdFJ4BetLLVY7ORuE9noqbbAZOZn/aArXyTwFAZfKrPzxF2vPoJNf1+UCdg1XGAjBwX1zd9WGqYkqmL5SFqw1QySjr1zJfpJM9+1rdDwSPLMOPOjKuiXjoU/pUUeG9RwmhY3BhZFkNngAAAAAAAAAAAAAAAAAAAAAAAAAAAAAAAAAAAAAAAAAAAAAAAAAAAAAAAAAAAAAAAAAAAAAAAAAAAAAAAAAAAAAAAAAAAAAAAAAAAAAAAAAAAAAAAAAAAAAAAAAAAAAAAAAAAAAAAAAAAAAAAAAAAAAAAAAAAAAAAAAAAAAAAAAAAAAAAAAAAAAAAAAAAAAAAAAAAAAAAAAAAAAAAAAAAAAAAAAAAAAAAAAAAAAAAAAAAAAAAAAAAAAAAAAAAAAAAAAAAAAAAAAAAAAAAAAAAAAAAAAAAAAAAAAAAAAAAAAAAAAAAAAAAAAAAAAAAAAAAAAAAAAAAAAAAAAAAAAAAAAAAAAAAAAAAAAAAAAAAAAAAAAAAAAAAAAAAAAAAAAAAAAAAAAAAAAAAAAAAAAAAAAAAAAAAAAAAAAAAAAAAAAAAAAAAAAAAAAAAAAAAAAAAAAAAAAAAAAAAAAAAAAAAAAAAAAAAAAAAAAAAAAAAAAAAAAAAAAAAAAAAAAAAAAAAAAAAAAAAAAAAAAAAAAAAAAAAAAAAAAAAAAAAAAAAAAAAAAAAAAAAAAAAAAAAAAAAAAAAAAAAAAAAAAAAAAAAAAAAAAAAAAAAAAAAAAAAAAAAAAAAAAAAAAAAAAAAAAAAAAAAAAAAAAAAAAAAAAAAAAAAAAAAAAAAAAAAAAAAAAAAAAAAAAAAAAAAAAAAAAAAAAAAAAAAAAAAAAAAAAAAAAAAAAAAAAAAAAAAAAAAAAAAAAAAAAAAAAAAAAAAAAAAAAAAAAAAAAAAAAAAAAAAAAAAAAAAAAAAAAAAAAAAAAAAAAAAAAAAAAAAAAAAAAAAAAAAAAAAAAAAAAAAAAAAAAAAAAAAAAAAAAAAAAAAAAAAAAAAAAAAAAAAAAAAAAAAAAAAAAAAAAAAAAAAAAAAAAAAAAAAAAAAAAAAAAAAAAAAAAAAAAAAAAAAAAAAAAAAAAAAAAAAAAAAAAAAAAAAAAAAAAAAAAAAAAAAAAAAAAAAAAAAAAAAAAAAAAAAAAAAAAAAAAAAAAAAAAAAAAAAAAAAAAAAAAAAAAAAAAAAAAAAAAAAAAAAAAAAAAAAAAAAAAAAAAAAAAAAAAAAAAAAAAAAAAAAAAAAAAAAAAAAAAAAAAAAAAAAAAAAAAAAAAAAAAAAAAAAAAAAAAAAAAAAAAAAAAAAAAAAAAAAAAAAAAAAAAAAAAAAAAAAAAAAAAAAAAAAAAAAAAAAAAAAAAAAAAAAAAAAAAAAAAAAAAAAAAAAAAAAAAAAAAAAAAAAAAAAAAAAAAAAAAAAAAAAAAAAAAAAAAAAAAAAAAAAAAAAAAAAAAAAAAAAAAAAAAAAAAAAAAAAAAAAAAAAAAAAAAAAAAAAAAAAAAAAAAAAAAAAAAAAAAAAAAAAAAAAAAAAAAAAAAAAAAAAAAAAAAAAAAAAAAAAAAAAAAAAAAAAAAAAAAAAAAAAAAAAAAAAAAAAAAAAAAAAAAAAAAAAAAAAAAAAAAAAAAAAAAAAAAAAAAAAAAAAAAAAAAAAAAAAAAAAAAAAAAAAAAAAAAAAAAAAAAAAAAAAAAAAAAAAAAAAAAAAAAAAAAAAAAAAAAAAAAAAAAAAAAAAAAAAAAAAAAAAAAAAAAAAAAAAAAAAAAAAAAAAAAAAAAAAAAAAAAAAAAAAAAAAAAAAAAAAAAAAAAAAAAAAAAAAAAAAAAAAAAAAAAAAAAAAAAAAAAAAAAAAAAAAAAAAAAAAAAAAAAAAAAAAAAAAAAAAAAAAAAAAAAAAAAAAAAAAAAAAAAAAAAAAAAAAAAAAAAAAAAAAAAAAAAAAAAAAAAAAAAAAAAAAAAAAAAAAAAAAAAAAAAAAAAAAAAAAAAAAAAAAAAAAAAAAAAAAAAAAAAAAAAAAAAAAAAAAAAAAAAAAAAAAAAAAAAAAAAAAAAAAAAAAAAAAAAAAAAAAAAAAAAAAAAAAAAAAAAAAAAAAAAAAAAAAAAAAAAAAAAAAAAAAAAAAAAAAAAAAAAAAAAAAAAAAAAAAAAAAAAAAAAAAAAAAAAAAAAAAAAAAAAAAAAAAAAAAAAAAAAAAAAAAAAAAAAAAAAAAAAAAAAAAAAAAAAAAAAAAAAAAAAAAAAAAAAAAAAAAAAAAAAAAAAAAAAAAAAAAAAAAAAAAAAAAAAAAAAAAAAAAAAAAAAAAAAAAAAAAAAAAAAAAAAAAAAAAAAAAAAAAAAAAAAAAAAAAAAAAAAAAAAAAAAAAAAAAAAAAAAAAAAAAAAAAAAAAAAAAAAAAAAAAAAAAAAAAAAAAAAAAAAAAAAAAAAAAAAAAAAAAAAAAAAAAAAAAAAAAAAAAAAAAAAAAAAAAAAAAAAAAAAAAAAAAAAAAAAAAAAAAAAAAAAAAAAAAAAAAAAAAAAAAAAAAAAAAAAAAAAAAAAAAAAAAAAAAAAAAAAAAAAAAAAAAAAAAAAAAAAAAAAAAAAAAAAAAAAAAAAAAAAAAAAAAAAAAAAAAAAAAAAAAAAAAAAAAAAAAAAAAAAAAAAAAAAAAAAAAAAAAAAAAAAAAAAAAAAAAAAAAAAAAAAAAAAAAAAAAAAAAAAAAAAAAAAAAAAAAAAAAAAAAAAAAAAAAAAAAAAAAAAAAAAAAAAAAAAAAAAAAAAAAAAAAAAAAAAAAAAAAAAAAAAAAAAAAAAAAAAAAAAAAAAAAAAAAAAAAAAAAAAAAAAAAAAAAAAAAAAAAAAAAAAAAAAAAAAAAAAAAAAAAAAAAAAAAAAAAAAAAAAAAAAAAAAAAAAAAAAAAAAAAAAAAAAAAAAAAAAAAAAAAAAAAAAAAAAAAAAAAAAAAAAAAAAAAAAAAAAAAAAAAAAAAAAAAAAAAAAAAAAAAAAAAAAAAAAAAAAAAAAAAAAAAAAAAAAAAAAAAAAAAAAAAAAAAAAAAAAAAAAAAAAAAAAAAAAAAAAAAAAAAAAAAAAAAAAAAAAAAAAAAAAAAAAAAAAAAAAAAAAAAAAAAAAAAAAAAAAAAAAAAAAAAAAAAAAAAAAAAAAAAAAAAAAAAAAAAAAAAAAAAAAAAAAAAAAAAAAAAAAAAAAAAAAAAAAAAAAAAAAAAAAAAAAAAAAAAAAAAAAAAAAAAAAAAAAAAAAAAAAAAAAAAAAAAAAAAAAAAAAAAAAAAAAAAAAAAAAAAAAAAAAAAAAAAAAAAAAAAAAAAAAAAAAAAAAAAAAAAAAAAAAAAAAAAAAAAAAAAAAAAAAAAAAAAAAAAAAAAAAAAAAAAAAAAAAAAAAAAAAAAAAAAAAAAAAAAAAAAAAAAAAAAAAAAAAAAAAAAAAAAAAAAAAAAAAAAAAAAAAAAAAAAAAAAAAAAAAAAAAAAAAAAAAAAAAAAAAAAAAAAAAAAAAAAAAAAAAAAAAAAAAAAAAAAAAAAAAAAAAAAAAAAAAAAAAAAAAAAAAAAAAAAAAAAAAAAAAAAAAAAAAAAAAAAAAAAAAAAAAAAAAAAAAAAAAAAAAAAAAAAAAAAAAAAAAAAAAAAAAAAAAAAAAAAAAAAAAAAAAAAAAAAAAAAAAAAAAAAAAAAAAAAAAAAAAAAAAAAAAAAAAAAAAAAAAAAAAAAAAAAAAAAAAAAAAAAAAAAAAAAAAAAAAAAAAAAAAAAAAAAAAAAAAAAAAAAAAAAAAAAAAAAAAAAAAAAAAAAAAAAAAAAAAAAAAAAAAAAAAAAAAAAAAAAAAAAAAAAAAAAAAAAAAAAAAAAAAAAAAAAAAAAAAAAAAAAAAAAAAAAAAAAAAAAAAAAAAAAAAAAAAAAAAAAAAAAAAAAAAAAAAAAAAAAAAAAAAAAAAAAAAAAAAAAAAAAAAAAAAAAAAAAAAAAAAAAAAAAAAAAAAAAAAAAAAAAAAAAAAAAAAAAAAAAAAAAAAAAAAAAAAAAAAAAAAAAAAAAAAAAAAAAAAAAAAAAAAAAAAAAAAAAAAAAAAAAAAAAAAAAAAAAAAAAAAAAAAAAAAAAAAAAAAAAAAAAAAAAAAAAAAAAAAAAAAAAAAAAAAAAAAAAAAAAAAAAAAAAAAAAAAAAAAAAAAAAAAAAAAAAAAAAAAAAAAAAAAAAAAAAAAAAAAAAAAAAAAAAAAAAAAAAAAAAAAAAAAAAAAAAAAAAAAAAAAAAAAAAAAAAAAAAAAAAAAAAAAAAAAAAAAAAAAAAAAAAAAAAAAAAAAAAAAAAAAAAAAAAAAAAAAAAAAAAAAAAAAAAAAAAAAAAAAAAAAAAAAAAAAAAAAAAAAAAAAAAAAAAAAAAAAAAAAAAAAAAAAAAAAAAAAAAAAAAAAAAAAAAAAAAAAAAAAAAAAAAAAAAAAAAAAAAAAAAAAAAAAAAAAAAAAAAAAAAAAAAAAAAAAAAAAAAAAAAAAAAAAAAAAAAAAAAAAAAAAAAAAAAAAAAAAAAAAAAAAAAAAAAAAAAAAAAAAAAAAAAAAAAAAAAAAAAAAAAAAAAAAAAAAAAAAAAAAAAAAAAAAAAAAAAAAAAAAAAAAAAAAAAAAAAAAAAAAAAAAAAAAAAAAAAAAAAAAAAAAAAAAAAAAAAAAAAAAAAAAAAAAAAAAAAAAAAAAAAAAAAAAAAAAAAAAAAAAAAAAAAAAAAAAAAAAAAAAAAAAAAAAAAAAAAAAAAAAAAAAAAAAAAAAAAAAAAAAAAAAAAAAAAAAAAAAAAAAAAAAAAAAAAAAAAAAAAPZYQGsbTMhsf+pXq7//uqiTY+rbwrmvnhLH7hfUrwC8fzCKYI82lmmocBaZYQxD+v5mea+hud/60IVEmstyrnK6JFw=</c2pa:manifest></metadata>
<rect width="900" height="900" fill="#F1E9DB"/>
<circle cx="450" cy="450" r="420" fill="none" stroke="#E6CF9A" stroke-width="1"/>
<circle cx="450" cy="450" r="400" fill="none" stroke="#B9572B" stroke-width="1.2" stroke-dasharray="3 9"/>
<path d="M700.0,450.0 Q764.2,404.4 835.0,450.0 Q764.2,495.6 700.0,450.0Z" fill="none" stroke="#B9572B" stroke-width="1.4"/>
<path d="M691.5,514.7 Q765.3,487.3 821.9,549.6 Q741.7,575.3 691.5,514.7Z" fill="none" stroke="#B9572B" stroke-width="1.4"/>
<path d="M666.5,575.0 Q744.9,567.7 783.4,642.5 Q699.3,646.6 666.5,575.0Z" fill="none" stroke="#B9572B" stroke-width="1.4"/>
<path d="M626.8,626.8 Q704.4,640.0 722.2,722.2 Q640.0,704.4 626.8,626.8Z" fill="none" stroke="#B9572B" stroke-width="1.4"/>
<path d="M575.0,666.5 Q646.6,699.3 642.5,783.4 Q567.7,744.9 575.0,666.5Z" fill="none" stroke="#B9572B" stroke-width="1.4"/>
<path d="M514.7,691.5 Q575.3,741.7 549.6,821.9 Q487.3,765.3 514.7,691.5Z" fill="none" stroke="#B9572B" stroke-width="1.4"/>
<path d="M450.0,700.0 Q495.6,764.2 450.0,835.0 Q404.4,764.2 450.0,700.0Z" fill="none" stroke="#B9572B" stroke-width="1.4"/>
<path d="M385.3,691.5 Q412.7,765.3 350.4,821.9 Q324.7,741.7 385.3,691.5Z" fill="none" stroke="#B9572B" stroke-width="1.4"/>
<path d="M325.0,666.5 Q332.3,744.9 257.5,783.4 Q253.4,699.3 325.0,666.5Z" fill="none" stroke="#B9572B" stroke-width="1.4"/>
<path d="M273.2,626.8 Q260.0,704.4 177.8,722.2 Q195.6,640.0 273.2,626.8Z" fill="none" stroke="#B9572B" stroke-width="1.4"/>
<path d="M233.5,575.0 Q200.7,646.6 116.6,642.5 Q155.1,567.7 233.5,575.0Z" fill="none" stroke="#B9572B" stroke-width="1.4"/>
<path d="M208.5,514.7 Q158.3,575.3 78.1,549.6 Q134.7,487.3 208.5,514.7Z" fill="none" stroke="#B9572B" stroke-width="1.4"/>
<path d="M200.0,450.0 Q135.8,495.6 65.0,450.0 Q135.8,404.4 200.0,450.0Z" fill="none" stroke="#B9572B" stroke-width="1.4"/>
<path d="M208.5,385.3 Q134.7,412.7 78.1,350.4 Q158.3,324.7 208.5,385.3Z" fill="none" stroke="#B9572B" stroke-width="1.4"/>
<path d="M233.5,325.0 Q155.1,332.3 116.6,257.5 Q200.7,253.4 233.5,325.0Z" fill="none" stroke="#B9572B" stroke-width="1.4"/>
<path d="M273.2,273.2 Q195.6,260.0 177.8,177.8 Q260.0,195.6 273.2,273.2Z" fill="none" stroke="#B9572B" stroke-width="1.4"/>
<path d="M325.0,233.5 Q253.4,200.7 257.5,116.6 Q332.3,155.1 325.0,233.5Z" fill="none" stroke="#B9572B" stroke-width="1.4"/>
<path d="M385.3,208.5 Q324.7,158.3 350.4,78.1 Q412.7,134.7 385.3,208.5Z" fill="none" stroke="#B9572B" stroke-width="1.4"/>
<path d="M450.0,200.0 Q404.4,135.8 450.0,65.0 Q495.6,135.8 450.0,200.0Z" fill="none" stroke="#B9572B" stroke-width="1.4"/>
<path d="M514.7,208.5 Q487.3,134.7 549.6,78.1 Q575.3,158.3 514.7,208.5Z" fill="none" stroke="#B9572B" stroke-width="1.4"/>
<path d="M575.0,233.5 Q567.7,155.1 642.5,116.6 Q646.6,200.7 575.0,233.5Z" fill="none" stroke="#B9572B" stroke-width="1.4"/>
<path d="M626.8,273.2 Q640.0,195.6 722.2,177.8 Q704.4,260.0 626.8,273.2Z" fill="none" stroke="#B9572B" stroke-width="1.4"/>
<path d="M666.5,325.0 Q699.3,253.4 783.4,257.5 Q744.9,332.3 666.5,325.0Z" fill="none" stroke="#B9572B" stroke-width="1.4"/>
<path d="M691.5,385.3 Q741.7,324.7 821.9,350.4 Q765.3,412.7 691.5,385.3Z" fill="none" stroke="#B9572B" stroke-width="1.4"/>
<path d="M616.7,483.2 Q666.0,445.8 707.0,501.1 Q647.9,536.6 616.7,483.2Z" fill="#E2B49A" stroke="#8F3F1D" stroke-width="1.2"/>
<path d="M591.3,544.4 Q651.1,528.7 667.8,595.6 Q599.7,605.7 591.3,544.4Z" fill="#E2B49A" stroke="#8F3F1D" stroke-width="1.2"/>
<path d="M544.4,591.3 Q605.7,599.7 595.6,667.8 Q528.7,651.1 544.4,591.3Z" fill="#E2B49A" stroke="#8F3F1D" stroke-width="1.2"/>
<path d="M483.2,616.7 Q536.6,647.9 501.1,707.0 Q445.8,666.0 483.2,616.7Z" fill="#E2B49A" stroke="#8F3F1D" stroke-width="1.2"/>
<path d="M416.8,616.7 Q454.2,666.0 398.9,707.0 Q363.4,647.9 416.8,616.7Z" fill="#E2B49A" stroke="#8F3F1D" stroke-width="1.2"/>
<path d="M355.6,591.3 Q371.3,651.1 304.4,667.8 Q294.3,599.7 355.6,591.3Z" fill="#E2B49A" stroke="#8F3F1D" stroke-width="1.2"/>
<path d="M308.7,544.4 Q300.3,605.7 232.2,595.6 Q248.9,528.7 308.7,544.4Z" fill="#E2B49A" stroke="#8F3F1D" stroke-width="1.2"/>
<path d="M283.3,483.2 Q252.1,536.6 193.0,501.1 Q234.0,445.8 283.3,483.2Z" fill="#E2B49A" stroke="#8F3F1D" stroke-width="1.2"/>
<path d="M283.3,416.8 Q234.0,454.2 193.0,398.9 Q252.1,363.4 283.3,416.8Z" fill="#E2B49A" stroke="#8F3F1D" stroke-width="1.2"/>
<path d="M308.7,355.6 Q248.9,371.3 232.2,304.4 Q300.3,294.3 308.7,355.6Z" fill="#E2B49A" stroke="#8F3F1D" stroke-width="1.2"/>
<path d="M355.6,308.7 Q294.3,300.3 304.4,232.2 Q371.3,248.9 355.6,308.7Z" fill="#E2B49A" stroke="#8F3F1D" stroke-width="1.2"/>
<path d="M416.8,283.3 Q363.4,252.1 398.9,193.0 Q454.2,234.0 416.8,283.3Z" fill="#E2B49A" stroke="#8F3F1D" stroke-width="1.2"/>
<path d="M483.2,283.3 Q445.8,234.0 501.1,193.0 Q536.6,252.1 483.2,283.3Z" fill="#E2B49A" stroke="#8F3F1D" stroke-width="1.2"/>
<path d="M544.4,308.7 Q528.7,248.9 595.6,232.2 Q605.7,300.3 544.4,308.7Z" fill="#E2B49A" stroke="#8F3F1D" stroke-width="1.2"/>
<path d="M591.3,355.6 Q599.7,294.3 667.8,304.4 Q651.1,371.3 591.3,355.6Z" fill="#E2B49A" stroke="#8F3F1D" stroke-width="1.2"/>
<path d="M616.7,416.8 Q647.9,363.4 707.0,398.9 Q666.0,454.2 616.7,416.8Z" fill="#E2B49A" stroke="#8F3F1D" stroke-width="1.2"/>
<circle cx="450" cy="450" r="168" fill="none" stroke="#C9A25A" stroke-width="2"/>
<path d="M545.0,450.0 Q574.6,413.1 615.0,450.0 Q574.6,486.9 545.0,450.0Z" fill="#FAF6EF" stroke="#C9A25A" stroke-width="1.4"/>
<path d="M532.3,497.5 Q576.4,480.3 592.9,532.5 Q539.5,544.3 532.3,497.5Z" fill="#FAF6EF" stroke="#C9A25A" stroke-width="1.4"/>
<path d="M497.5,532.3 Q544.3,539.5 532.5,592.9 Q480.3,576.4 497.5,532.3Z" fill="#FAF6EF" stroke="#C9A25A" stroke-width="1.4"/>
<path d="M450.0,545.0 Q486.9,574.6 450.0,615.0 Q413.1,574.6 450.0,545.0Z" fill="#FAF6EF" stroke="#C9A25A" stroke-width="1.4"/>
<path d="M402.5,532.3 Q419.7,576.4 367.5,592.9 Q355.7,539.5 402.5,532.3Z" fill="#FAF6EF" stroke="#C9A25A" stroke-width="1.4"/>
<path d="M367.7,497.5 Q360.5,544.3 307.1,532.5 Q323.6,480.3 367.7,497.5Z" fill="#FAF6EF" stroke="#C9A25A" stroke-width="1.4"/>
<path d="M355.0,450.0 Q325.4,486.9 285.0,450.0 Q325.4,413.1 355.0,450.0Z" fill="#FAF6EF" stroke="#C9A25A" stroke-width="1.4"/>
<path d="M367.7,402.5 Q323.6,419.7 307.1,367.5 Q360.5,355.7 367.7,402.5Z" fill="#FAF6EF" stroke="#C9A25A" stroke-width="1.4"/>
<path d="M402.5,367.7 Q355.7,360.5 367.5,307.1 Q419.7,323.6 402.5,367.7Z" fill="#FAF6EF" stroke="#C9A25A" stroke-width="1.4"/>
<path d="M450.0,355.0 Q413.1,325.4 450.0,285.0 Q486.9,325.4 450.0,355.0Z" fill="#FAF6EF" stroke="#C9A25A" stroke-width="1.4"/>
<path d="M497.5,367.7 Q480.3,323.6 532.5,307.1 Q544.3,360.5 497.5,367.7Z" fill="#FAF6EF" stroke="#C9A25A" stroke-width="1.4"/>
<path d="M532.3,402.5 Q539.5,355.7 592.9,367.5 Q576.4,419.7 532.3,402.5Z" fill="#FAF6EF" stroke="#C9A25A" stroke-width="1.4"/>
<path d="M487.0,465.3 Q517.9,447.3 538.7,486.7 Q496.2,499.9 487.0,465.3Z" fill="#B9572B" stroke="#B9572B" stroke-width="0"/>
<path d="M465.3,487.0 Q499.9,496.2 486.7,538.7 Q447.3,517.9 465.3,487.0Z" fill="#B9572B" stroke="#B9572B" stroke-width="0"/>
<path d="M434.7,487.0 Q452.7,517.9 413.3,538.7 Q400.1,496.2 434.7,487.0Z" fill="#B9572B" stroke="#B9572B" stroke-width="0"/>
<path d="M413.0,465.3 Q403.8,499.9 361.3,486.7 Q382.1,447.3 413.0,465.3Z" fill="#B9572B" stroke="#B9572B" stroke-width="0"/>
<path d="M413.0,434.7 Q382.1,452.7 361.3,413.3 Q403.8,400.1 413.0,434.7Z" fill="#B9572B" stroke="#B9572B" stroke-width="0"/>
<path d="M434.7,413.0 Q400.1,403.8 413.3,361.3 Q452.7,382.1 434.7,413.0Z" fill="#B9572B" stroke="#B9572B" stroke-width="0"/>
<path d="M465.3,413.0 Q447.3,382.1 486.7,361.3 Q499.9,403.8 465.3,413.0Z" fill="#B9572B" stroke="#B9572B" stroke-width="0"/>
<path d="M487.0,434.7 Q496.2,400.1 538.7,413.3 Q517.9,452.7 487.0,434.7Z" fill="#B9572B" stroke="#B9572B" stroke-width="0"/>
<circle cx="450" cy="450" r="38" fill="#FAF6EF" stroke="#FAF6EF" stroke-width="0"/>
<circle cx="450" cy="450" r="22" fill="#C9A25A" stroke="#C9A25A" stroke-width="0"/>
<circle cx="860.0" cy="450.0" r="3" fill="#C9A25A"/>
<circle cx="846.0" cy="556.1" r="3" fill="#C9A25A"/>
<circle cx="805.1" cy="655.0" r="3" fill="#C9A25A"/>
<circle cx="739.9" cy="739.9" r="3" fill="#C9A25A"/>
<circle cx="655.0" cy="805.1" r="3" fill="#C9A25A"/>
<circle cx="556.1" cy="846.0" r="3" fill="#C9A25A"/>
<circle cx="450.0" cy="860.0" r="3" fill="#C9A25A"/>
<circle cx="343.9" cy="846.0" r="3" fill="#C9A25A"/>
<circle cx="245.0" cy="805.1" r="3" fill="#C9A25A"/>
<circle cx="160.1" cy="739.9" r="3" fill="#C9A25A"/>
<circle cx="94.9" cy="655.0" r="3" fill="#C9A25A"/>
<circle cx="54.0" cy="556.1" r="3" fill="#C9A25A"/>
<circle cx="40.0" cy="450.0" r="3" fill="#C9A25A"/>
<circle cx="54.0" cy="343.9" r="3" fill="#C9A25A"/>
<circle cx="94.9" cy="245.0" r="3" fill="#C9A25A"/>
<circle cx="160.1" cy="160.1" r="3" fill="#C9A25A"/>
<circle cx="245.0" cy="94.9" r="3" fill="#C9A25A"/>
<circle cx="343.9" cy="54.0" r="3" fill="#C9A25A"/>
<circle cx="450.0" cy="40.0" r="3" fill="#C9A25A"/>
<circle cx="556.1" cy="54.0" r="3" fill="#C9A25A"/>
<circle cx="655.0" cy="94.9" r="3" fill="#C9A25A"/>
<circle cx="739.9" cy="160.1" r="3" fill="#C9A25A"/>
<circle cx="805.1" cy="245.0" r="3" fill="#C9A25A"/>
<circle cx="846.0" cy="343.9" r="3" fill="#C9A25A"/>
</svg>